<svg>
    <!-- Task Open Icon Symbol -->
    <symbol id="task-open-icon" viewBox="0 0 32 32" fill="none" xmlns="http://www.w3.org/2000/svg">
        <!-- Checkmark Path -->
        <path d="M22 27.1801L19.41 24.5901L18 26.0001L22 30.0001L30 22.0001L28.59 20.5901L22 27.1801Z" fill="#F8F8FC" />
        <!-- Calendar/Task Shape Path -->
        <path
            d="M25 5H22V4C21.9984 3.47005 21.7872 2.96227 21.4125 2.58753C21.0377 2.2128 20.5299 2.00158 20 2H12C11.4701 2.00158 10.9623 2.2128 10.5875 2.58753C10.2128 2.96227 10.0016 3.47005 10 4V5H7C6.47005 5.00158 5.96227 5.2128 5.58753 5.58753C5.2128 5.96227 5.00158 6.47005 5 7V28C5.00158 28.5299 5.2128 29.0377 5.58753 29.4125C5.96227 29.7872 6.47005 29.9984 7 30H16V28H7V7H10V10H22V7H25V18H27V7C26.9984 6.47005 26.7872 5.96227 26.4125 5.58753C26.0377 5.2128 25.5299 5.00158 25 5ZM20 8H12V4H20V8Z"
            fill="#F8F8FC"
        />
    </symbol>

    <!-- Sun Icon Symbol -->
    <symbol id="sun-icon" viewBox="0 0 32 32" fill="none" xmlns="http://www.w3.org/2000/svg">
        <!-- Sun and Rays Path -->
        <path
            d="M14.5 4V2C14.5 1.60218 14.658 1.22064 14.9393 0.93934C15.2206 0.658035 15.6022 0.5 16 0.5C16.3978 0.5 16.7794 0.658035 17.0607 0.93934C17.342 1.22064 17.5 1.60218 17.5 2V4C17.5 4.39782 17.342 4.77936 17.0607 5.06066C16.7794 5.34196 16.3978 5.5 16 5.5C15.6022 5.5 15.2206 5.34196 14.9393 5.06066C14.658 4.77936 14.5 4.39782 14.5 4ZM24.5 16C24.5 17.6811 24.0015 19.3245 23.0675 20.7223C22.1335 22.1202 20.806 23.2096 19.2528 23.853C17.6996 24.4963 15.9906 24.6647 14.3417 24.3367C12.6929 24.0087 11.1783 23.1992 9.98959 22.0104C8.80085 20.8217 7.9913 19.3071 7.66333 17.6583C7.33535 16.0094 7.50368 14.3004 8.14702 12.7472C8.79037 11.194 9.87983 9.8665 11.2777 8.93251C12.6755 7.99852 14.3189 7.5 16 7.5C18.2536 7.50232 20.4143 8.39859 22.0078 9.99215C23.6014 11.5857 24.4977 13.7464 24.5 16ZM21.5 16C21.5 14.9122 21.1774 13.8488 20.5731 12.9444C19.9687 12.0399 19.1098 11.3349 18.1048 10.9187C17.0998 10.5024 15.9939 10.3935 14.927 10.6057C13.8601 10.8179 12.8801 11.3417 12.1109 12.1109C11.3417 12.8801 10.8179 13.8601 10.6057 14.927C10.3935 15.9939 10.5024 17.0998 10.9187 18.1048C11.3349 19.1098 12.0399 19.9687 12.9444 20.5731C13.8488 21.1774 14.9122 21.5 16 21.5C17.4582 21.4983 18.8562 20.9184 19.8873 19.8873C20.9184 18.8562 21.4983 17.4582 21.5 16ZM6.43875 8.56125C6.57828 8.70078 6.74392 8.81146 6.92623 8.88697C7.10853 8.96249 7.30393 9.00135 7.50125 9.00135C7.69857 9.00135 7.89397 8.96249 8.07627 8.88697C8.25858 8.81146 8.42422 8.70078 8.56375 8.56125C8.70328 8.42172 8.81396 8.25607 8.88947 8.07377C8.96499 7.89147 9.00385 7.69607 9.00385 7.49875C9.00385 7.30143 8.96499 7.10603 8.88947 6.92373C8.81396 6.74142 8.70328 6.57578 8.56375 6.43625L7.06375 4.93625C6.78196 4.65446 6.39976 4.49615 6.00125 4.49615C5.60273 4.49615 5.22054 4.65446 4.93875 4.93625C4.65696 5.21804 4.49865 5.60024 4.49865 5.99875C4.49865 6.39727 4.65696 6.77946 4.93875 7.06125L6.43875 8.56125ZM6.43875 23.4363L4.93875 24.9363C4.79922 25.0758 4.68854 25.2414 4.61303 25.4237C4.53751 25.606 4.49865 25.8014 4.49865 25.9988C4.49865 26.1961 4.53751 26.3915 4.61303 26.5738C4.68854 26.7561 4.79922 26.9217 4.93875 27.0613C5.22054 27.343 5.60273 27.5014 6.00125 27.5014C6.19857 27.5014 6.39397 27.4625 6.57627 27.387C6.75858 27.3115 6.92422 27.2008 7.06375 27.0613L8.56375 25.5613C8.84554 25.2795 9.00385 24.8973 9.00385 24.4988C9.00385 24.1002 8.84554 23.718 8.56375 23.4363C8.28196 23.1545 7.89976 22.9961 7.50125 22.9961C7.10273 22.9961 6.72054 23.1545 6.43875 23.4363ZM24.5 9C24.697 9.00015 24.8922 8.96149 25.0743 8.8862C25.2564 8.81092 25.4218 8.7005 25.5613 8.56125L27.0613 7.06125C27.2008 6.92172 27.3115 6.75608 27.387 6.57377C27.4625 6.39147 27.5014 6.19607 27.5014 5.99875C27.5014 5.80143 27.4625 5.60603 27.387 5.42373C27.3115 5.24142 27.2008 5.07578 27.0613 4.93625C26.9217 4.79672 26.7561 4.68604 26.5738 4.61053C26.3915 4.53501 26.1961 4.49615 25.9988 4.49615C25.8014 4.49615 25.606 4.53501 25.4237 4.61053C25.2414 4.68604 25.0758 4.79672 24.9363 4.93625L23.4363 6.43625C23.2252 6.64605 23.0814 6.91388 23.023 7.20567C22.9646 7.49745 22.9943 7.80002 23.1083 8.07487C23.2224 8.34973 23.4156 8.58445 23.6634 8.74919C23.9112 8.91392 24.2024 9.00123 24.5 9ZM25.5613 23.4387C25.2795 23.157 24.8973 22.9986 24.4988 22.9986C24.1002 22.9986 23.718 23.157 23.4363 23.4387C23.1545 23.7205 22.9961 24.1027 22.9961 24.5012C22.9961 24.8998 23.1545 25.282 23.4363 25.5637L24.9363 27.0637C25.218 27.3455 25.6002 27.5039 25.9988 27.5039C26.3973 27.5039 26.7795 27.3455 27.0613 27.0637C27.343 26.782 27.5014 26.3998 27.5014 26.0012C27.5014 25.6027 27.343 25.2205 27.0613 24.9387L25.5613 23.4387ZM5.5 16C5.5 15.6022 5.34196 15.2206 5.06066 14.9393C4.77936 14.658 4.39782 14.5 4 14.5H2C1.60218 14.5 1.22064 14.658 0.93934 14.9393C0.658035 15.2206 0.5 15.6022 0.5 16C0.5 16.3978 0.658035 16.7794 0.93934 17.0607C1.22064 17.342 1.60218 17.5 2 17.5H4C4.39782 17.5 4.77936 17.342 5.06066 17.0607C5.34196 16.7794 5.5 16.3978 5.5 16ZM16 26.5C15.6022 26.5 15.2206 26.658 14.9393 26.9393C14.658 27.2206 14.5 27.6022 14.5 28V30C14.5 30.3978 14.658 30.7794 14.9393 31.0607C15.2206 31.342 15.6022 31.5 16 31.5C16.3978 31.5 16.7794 31.342 17.0607 31.0607C17.342 30.7794 17.5 30.3978 17.5 30V28C17.5 27.6022 17.342 27.2206 17.0607 26.9393C16.7794 26.658 16.3978 26.5 16 26.5ZM30 14.5H28C27.6022 14.5 27.2206 14.658 26.9393 14.9393C26.658 15.2206 26.5 15.6022 26.5 16C26.5 16.3978 26.658 16.7794 26.9393 17.0607C27.2206 17.342 27.6022 17.5 28 17.5H30C30.3978 17.5 30.7794 17.342 31.0607 17.0607C31.342 16.7794 31.5 16.3978 31.5 16C31.5 15.6022 31.342 15.2206 31.0607 14.9393C30.7794 14.658 30.3978 14.5 30 14.5Z"
            fill="#F8F8FC"
        />
    </symbol>

    <!-- Clock Pause Icon Symbol -->
    <symbol id="clock-icon-pause" viewBox="0 0 36 36" fill="none" xmlns="http://www.w3.org/2000/svg">
        <!-- Clock Shape and Pause Arrow Path -->
        <path
            d="M18 3.375C15.1074 3.375 12.2799 4.23274 9.87478 5.83976C7.46972 7.44677 5.59519 9.73089 4.48826 12.4033C3.38133 15.0756 3.09171 18.0162 3.65601 20.8532C4.22032 23.6902 5.61322 26.2961 7.65856 28.3414C9.70391 30.3868 12.3098 31.7797 15.1468 32.344C17.9838 32.9083 20.9244 32.6187 23.5967 31.5117C26.2691 30.4048 28.5532 28.5303 30.1602 26.1252C31.7673 23.7201 32.625 20.8926 32.625 18C32.6209 14.1225 31.0787 10.4049 28.3369 7.66309C25.5951 4.92125 21.8775 3.37909 18 3.375ZM18 30.375C15.5525 30.375 13.1599 29.6492 11.1248 28.2894C9.08976 26.9297 7.50362 24.9969 6.56699 22.7357C5.63036 20.4745 5.38529 17.9863 5.86278 15.5858C6.34027 13.1852 7.51888 10.9802 9.24955 9.24955C10.9802 7.51888 13.1852 6.34027 15.5858 5.86278C17.9863 5.38529 20.4745 5.63036 22.7357 6.56699C24.9969 7.50363 26.9297 9.08976 28.2894 11.1248C29.6492 13.1599 30.375 15.5525 30.375 18C30.3713 21.2809 29.0663 24.4264 26.7463 26.7463C24.4264 29.0663 21.2809 30.3713 18 30.375ZM23.1244 17.0634L16.3744 12.5634C16.2049 12.4504 16.0079 12.3854 15.8044 12.3756C15.601 12.3657 15.3986 12.4113 15.219 12.5075C15.0394 12.6036 14.8893 12.7467 14.7847 12.9215C14.6801 13.0963 14.6249 13.2963 14.625 13.5V22.5C14.6249 22.7037 14.6801 22.9037 14.7847 23.0785C14.8893 23.2533 15.0394 23.3964 15.219 23.4925C15.3986 23.5887 15.601 23.6343 15.8044 23.6244C16.0079 23.6146 16.2049 23.5496 16.3744 23.4366L23.1244 18.9366C23.2787 18.8339 23.4052 18.6946 23.4928 18.5312C23.5803 18.3679 23.6261 18.1854 23.6261 18C23.6261 17.8146 23.5803 17.6321 23.4928 17.4688C23.4052 17.3054 23.2787 17.1661 23.1244 17.0634ZM16.875 20.3977V15.6094L20.4722 18L16.875 20.3977Z"
            fill="#007ACC"
        />
    </symbol>

    <!-- Sound Pause Icon Symbol -->
    <symbol id="sound-icon-pause" viewBox="0 0 36 36" fill="none" xmlns="http://www.w3.org/2000/svg">
        <!-- Speaker and Pause Shape Path -->
        <path
            d="M21.8686 3.48892C21.6794 3.39674 21.4682 3.35946 21.2589 3.38134C21.0495 3.40321 20.8506 3.48336 20.6845 3.61267L10.8633 11.25H4.5C3.90326 11.25 3.33097 11.4871 2.90901 11.909C2.48705 12.331 2.25 12.9033 2.25 13.5V22.5C2.25 23.0968 2.48705 23.6691 2.90901 24.091C3.33097 24.513 3.90326 24.75 4.5 24.75H10.8633L20.6845 32.3874C20.8507 32.5166 21.0498 32.5965 21.2592 32.6182C21.4686 32.6399 21.6799 32.6023 21.869 32.5099C22.0581 32.4175 22.2175 32.2738 22.3291 32.0953C22.4406 31.9168 22.4998 31.7105 22.5 31.5V4.50002C22.5 4.28926 22.4409 4.08273 22.3292 3.90397C22.2176 3.7252 22.058 3.58139 21.8686 3.48892ZM4.5 13.5H10.125V22.5H4.5V13.5ZM20.25 29.1994L12.375 23.0752V12.9249L20.25 6.80064V29.1994Z"
            fill="#F8F8FC"
        />
    </symbol>
</svg>